<?xml version="1.0" encoding="UTF-8" standalone="no"?>
<!-- Created with Inkscape (http://www.inkscape.org/) -->
<svg xmlns:rdf="http://www.w3.org/1999/02/22-rdf-syntax-ns#" xmlns="http://www.w3.org/2000/svg" height="30.341mm" width="35.619mm" version="1.1" xmlns:cc="http://creativecommons.org/ns#" xmlns:dc="http://purl.org/dc/elements/1.1/" viewBox="0 0 126.2099 107.50886">
 <path d="m37.7 99.457c-15.361-16.391 10.913-24.755 10.213-13.873-0.21366 3.3226 0.4135 8.423 5.85 8.1787 2.0741-0.0932 8.2022-6.736 10.797-11.271 1.354-2.3661 0.50089-5.346-2.675-12.3-1.6493-3.6115-9.9458-11.275-9.9603-9.3802-0.007 0.85338-2.0493 3.6478-4.5395 6.2099-7.4089 7.6227-14.378 7.8006-21.556 0.10352-9.4074-10.087-11.819-7.1805-15.785-4.312-1.244 0.89968-4.6653 2.0347-6.4088 0.94702-1.682-22.532 20.053-36.028 41.536-24.762 4.4298 2.3228 4.6909 6.6005 4.987 10.238 4.0735-1.0791 10.137 4.8744 9.5874 4.6069 3.0624-1.2256 0.17255-4.6375-1.1107-5.2011-14.49-6.3643-14.871-24.957-1.545-33.767 2.9783-8.4452 14.062-12.135 22.795-11.187-1.4812 7.6616-6.1406 10.348-5.2987 14.505 1.1406 5.6315 6.5591 10.389 7.0242 16.931 1.0544 14.831-4.6384 8.4845-9.8571 13.051-1.3325 1.7127-4.9797 5.6224-2.5474 9.0219 1.7845 2.4941 2.919 1.9948 6.2064-1.4365 1.5808-1.65 3.825-3 4.9871-3 2.6223 0 4.5129-1.7996 4.5129-4.2956 0-3.7334 4.966-7.3329 8.8914-8.5799 24.036-6.1633 36.46 34.92 23.873 39.436 0.34451-3.5501-2.6684-2.9528-2.4489-7.4441 0.1459-2.9855-7.4473-3.0704-11.225-1.3056-11.465 5.3561-15.107 0.27579-21.169-8.672-6.7175 2.1565-12.008 22.171-9.9716 22.861 1.3332 0.45171 4.2768-1.8481 7.7958-4.2822 9.2372-7.2087 24.136-4.7356 28.977 3.7688 4.0342 8.0258-0.67233 20.242-10.799 19.513-6.3467-0.45658-9.9871-1.6861-10.44-6.0521-0.54221-5.2294 8.0176-7.2758 7.6419-10.53-0.29547-2.559-8.5911-2.0052-12.932 0.28691-8.8762 4.6872-10.009 11.025-18.697 14.133-9.0158 3.2257-21.212 3.7252-26.71-2.1415z"/>
 <metadata>
  <rdf:RDF>
   <cc:Work rdf:about="">
    <dc:title/>
   </cc:Work>
  </rdf:RDF>
 </metadata>
</svg>
